<svg width="64" height="64" viewBox="0 0 64 64" xmlns="http://www.w3.org/2000/svg">
<defs>
  <linearGradient id="bladeGradS1" x1="0" y1="0" x2="1" y2="1">
    <stop offset="0" stop-color="#1a3648"/>
    <stop offset="1" stop-color="#46738C"/>
  </linearGradient>
  <linearGradient id="bladeGradS2" x1="0" y1="0" x2="1" y2="1">
    <stop offset="0" stop-color="#46738C"/>
    <stop offset="1" stop-color="#F3723D"/>
  </linearGradient>
  <linearGradient id="bladeGradS3" x1="0" y1="0" x2="1" y2="1">
    <stop offset="0" stop-color="#F3723D"/>
    <stop offset="1" stop-color="#F9B620"/>
  </linearGradient>
</defs>
<rect x="1" y="1" width="62" height="62" rx="15" fill="#FFFFFF" stroke="#EAEDEF" stroke-width="1"/>
<g transform="translate(32,32) scale(0.62)">
  <g fill="url(#bladeGradS1)"><path d="M0 -6 L36 -20 Q42 0 36 20 L0 6 Z"/></g>
  <g transform="rotate(60)" fill="url(#bladeGradS2)"><path d="M0 -6 L36 -20 Q42 0 36 20 L0 6 Z"/></g>
  <g transform="rotate(120)" fill="url(#bladeGradS3)"><path d="M0 -6 L36 -20 Q42 0 36 20 L0 6 Z"/></g>
  <g transform="rotate(180)" fill="url(#bladeGradS1)"><path d="M0 -6 L36 -20 Q42 0 36 20 L0 6 Z"/></g>
  <g transform="rotate(240)" fill="url(#bladeGradS2)"><path d="M0 -6 L36 -20 Q42 0 36 20 L0 6 Z"/></g>
  <g transform="rotate(300)" fill="url(#bladeGradS3)"><path d="M0 -6 L36 -20 Q42 0 36 20 L0 6 Z"/></g>
  <circle r="9" fill="#F9F6F0"/>
</g>
</svg>
